<svg xmlns="http://www.w3.org/2000/svg" xmlns:xlink="http://www.w3.org/1999/xlink" version="1.1" class="marks" width="815" height="516" viewBox="0 0 815 516"><rect width="815" height="516" fill="#0d1117"/><g fill="none" stroke-miterlimit="10" transform="translate(63,45)"><g class="mark-group role-frame root" role="graphics-object" aria-roledescription="group mark container"><g transform="translate(0,0)"><path class="background" aria-hidden="true" d="M0,0h650v400h-650Z"/><g><g class="mark-group role-axis" role="graphics-symbol" aria-roledescription="axis" aria-label="X-axis titled 'Gehälter in €' for a discrete scale with 11 values: 2000, 3000, 4000, 5000, 6000, ending with 12000"><g transform="translate(0.5,400.5)"><path class="background" aria-hidden="true" d="M0,0h0v0h0Z" pointer-events="none"/><g><g class="mark-rule role-axis-tick" pointer-events="none"><line transform="translate(35,0)" x2="0" y2="5" stroke="#888" stroke-width="1" opacity="1"/><line transform="translate(93,0)" x2="0" y2="5" stroke="#888" stroke-width="1" opacity="1"/><line transform="translate(151,0)" x2="0" y2="5" stroke="#888" stroke-width="1" opacity="1"/><line transform="translate(209,0)" x2="0" y2="5" stroke="#888" stroke-width="1" opacity="1"/><line transform="translate(267,0)" x2="0" y2="5" stroke="#888" stroke-width="1" opacity="1"/><line transform="translate(325,0)" x2="0" y2="5" stroke="#888" stroke-width="1" opacity="1"/><line transform="translate(383,0)" x2="0" y2="5" stroke="#888" stroke-width="1" opacity="1"/><line transform="translate(441,0)" x2="0" y2="5" stroke="#888" stroke-width="1" opacity="1"/><line transform="translate(499,0)" x2="0" y2="5" stroke="#888" stroke-width="1" opacity="1"/><line transform="translate(557,0)" x2="0" y2="5" stroke="#888" stroke-width="1" opacity="1"/><line transform="translate(615,0)" x2="0" y2="5" stroke="#888" stroke-width="1" opacity="1"/></g><g class="mark-text role-axis-label" pointer-events="none"><text text-anchor="middle" transform="translate(34.5,22)" font-family="sans-serif" font-size="15px" fill="#fff" opacity="1">2000</text><text text-anchor="middle" transform="translate(92.5,22)" font-family="sans-serif" font-size="15px" fill="#fff" opacity="1">3000</text><text text-anchor="middle" transform="translate(150.5,22)" font-family="sans-serif" font-size="15px" fill="#fff" opacity="1">4000</text><text text-anchor="middle" transform="translate(208.5,22)" font-family="sans-serif" font-size="15px" fill="#fff" opacity="1">5000</text><text text-anchor="middle" transform="translate(266.5,22)" font-family="sans-serif" font-size="15px" fill="#fff" opacity="1">6000</text><text text-anchor="middle" transform="translate(324.5,22)" font-family="sans-serif" font-size="15px" fill="#fff" opacity="1">7000</text><text text-anchor="middle" transform="translate(382.5,22)" font-family="sans-serif" font-size="15px" fill="#fff" opacity="1">8000</text><text text-anchor="middle" transform="translate(440.5,22)" font-family="sans-serif" font-size="15px" fill="#fff" opacity="1">9000</text><text text-anchor="middle" transform="translate(498.5,22)" font-family="sans-serif" font-size="15px" fill="#fff" opacity="1">10000</text><text text-anchor="middle" transform="translate(556.5,22)" font-family="sans-serif" font-size="15px" fill="#fff" opacity="1">11000</text><text text-anchor="middle" transform="translate(614.5,22)" font-family="sans-serif" font-size="15px" fill="#fff" opacity="1">12000</text></g><g class="mark-rule role-axis-domain" pointer-events="none"><line transform="translate(0,0)" x2="650" y2="0" stroke="#888" stroke-width="1" opacity="1"/></g><g class="mark-text role-axis-title" pointer-events="none"><text text-anchor="middle" transform="translate(325,53)" font-family="DejaVu Sans Mono" font-size="17px" font-weight="bold" fill="#fff" opacity="1">Gehälter in €</text></g></g><path class="foreground" aria-hidden="true" d="" pointer-events="none" display="none"/></g></g><g class="mark-group role-axis" role="graphics-symbol" aria-roledescription="axis" aria-label="Y-axis titled 'Häufigkeit' for a linear scale with values from 0 to 9"><g transform="translate(0.5,0.5)"><path class="background" aria-hidden="true" d="M0,0h0v0h0Z" pointer-events="none"/><g><g class="mark-rule role-axis-tick" pointer-events="none"><line transform="translate(0,400)" x2="-5" y2="0" stroke="#888" stroke-width="1" opacity="1"/><line transform="translate(0,356)" x2="-5" y2="0" stroke="#888" stroke-width="1" opacity="1"/><line transform="translate(0,311)" x2="-5" y2="0" stroke="#888" stroke-width="1" opacity="1"/><line transform="translate(0,267)" x2="-5" y2="0" stroke="#888" stroke-width="1" opacity="1"/><line transform="translate(0,222)" x2="-5" y2="0" stroke="#888" stroke-width="1" opacity="1"/><line transform="translate(0,178)" x2="-5" y2="0" stroke="#888" stroke-width="1" opacity="1"/><line transform="translate(0,133)" x2="-5" y2="0" stroke="#888" stroke-width="1" opacity="1"/><line transform="translate(0,89)" x2="-5" y2="0" stroke="#888" stroke-width="1" opacity="1"/><line transform="translate(0,44)" x2="-5" y2="0" stroke="#888" stroke-width="1" opacity="1"/><line transform="translate(0,0)" x2="-5" y2="0" stroke="#888" stroke-width="1" opacity="1"/></g><g class="mark-text role-axis-label" pointer-events="none"><text text-anchor="end" transform="translate(-10,406)" font-family="sans-serif" font-size="15px" fill="#fff" opacity="1">0</text><text text-anchor="end" transform="translate(-10,361.55555555555554)" font-family="sans-serif" font-size="15px" fill="#fff" opacity="1">1</text><text text-anchor="end" transform="translate(-10,317.11111111111114)" font-family="sans-serif" font-size="15px" fill="#fff" opacity="1">2</text><text text-anchor="end" transform="translate(-10,272.6666666666667)" font-family="sans-serif" font-size="15px" fill="#fff" opacity="1">3</text><text text-anchor="end" transform="translate(-10,228.22222222222223)" font-family="sans-serif" font-size="15px" fill="#fff" opacity="1">4</text><text text-anchor="end" transform="translate(-10,183.77777777777777)" font-family="sans-serif" font-size="15px" fill="#fff" opacity="1">5</text><text text-anchor="end" transform="translate(-10,139.33333333333334)" font-family="sans-serif" font-size="15px" fill="#fff" opacity="1">6</text><text text-anchor="end" transform="translate(-10,94.88888888888889)" font-family="sans-serif" font-size="15px" fill="#fff" opacity="1">7</text><text text-anchor="end" transform="translate(-10,50.444444444444464)" font-family="sans-serif" font-size="15px" fill="#fff" opacity="1">8</text><text text-anchor="end" transform="translate(-10,6)" font-family="sans-serif" font-size="15px" fill="#fff" opacity="1">9</text></g><g class="mark-rule role-axis-domain" pointer-events="none"><line transform="translate(0,400)" x2="0" y2="-400" stroke="#888" stroke-width="1" opacity="1"/></g><g class="mark-text role-axis-title" pointer-events="none"><text text-anchor="end" transform="translate(-30,0) rotate(-90) translate(0,-4)" font-family="DejaVu Sans Mono" font-size="17px" font-weight="bold" fill="#fff" opacity="1">Häufigkeit</text></g></g><path class="foreground" aria-hidden="true" d="" pointer-events="none" display="none"/></g></g><g class="mark-rect role-mark" role="graphics-symbol" aria-roledescription="rect mark container"><path d="M37,0h56v400h-56Z" fill="#161b22"/><path d="M95,222.22222222222223h56v177.77777777777777h-56Z" fill="#161b22"/><path d="M153,266.6666666666667h56v133.33333333333331h-56Z" fill="#161b22"/><path d="M211,311.11111111111114h56v88.88888888888886h-56Z" fill="#161b22"/><path d="M269,355.55555555555554h56v44.44444444444446h-56Z" fill="#161b22"/><path d="M327,400h56v0h-56Z" fill="#161b22"/><path d="M385,400h56v0h-56Z" fill="#161b22"/><path d="M443,400h56v0h-56Z" fill="#161b22"/><path d="M501,400h56v0h-56Z" fill="#161b22"/><path d="M559,355.55555555555554h56v44.44444444444446h-56Z" fill="#161b22"/><path d="M617,400h56v0h-56Z" fill="#161b22"/></g><g class="mark-text role-mark" role="graphics-object" aria-roledescription="text mark container"><text text-anchor="middle" transform="translate(64.39999999999999,18)" font-family="sans-serif" font-size="11px" fill="#fff">9</text><text text-anchor="middle" transform="translate(122.39999999999999,240.22222222222223)" font-family="sans-serif" font-size="11px" fill="#fff">4</text><text text-anchor="middle" transform="translate(180.39999999999998,284.6666666666667)" font-family="sans-serif" font-size="11px" fill="#fff">3</text><text text-anchor="middle" transform="translate(238.39999999999998,329.11111111111114)" font-family="sans-serif" font-size="11px" fill="#fff">2</text><text text-anchor="middle" transform="translate(296.4,373.55555555555554)" font-family="sans-serif" font-size="11px" fill="#fff">1</text><text text-anchor="middle" transform="translate(354.4,418)" font-family="sans-serif" font-size="11px" fill="#fff">0</text><text text-anchor="middle" transform="translate(412.4,418)" font-family="sans-serif" font-size="11px" fill="#fff">0</text><text text-anchor="middle" transform="translate(470.4,418)" font-family="sans-serif" font-size="11px" fill="#fff">0</text><text text-anchor="middle" transform="translate(528.4,418)" font-family="sans-serif" font-size="11px" fill="#fff">0</text><text text-anchor="middle" transform="translate(586.4,373.55555555555554)" font-family="sans-serif" font-size="11px" fill="#fff">1</text><text text-anchor="middle" transform="translate(644.4,418)" font-family="sans-serif" font-size="11px" fill="#fff">0</text></g><g class="mark-rule role-mark" role="graphics-symbol" aria-roledescription="rule mark container"><line transform="translate(65,0)" x2="0" y2="400" stroke="#ff7f0e" stroke-width="2" stroke-dasharray="5,5" opacity="0.2"/><line transform="translate(65,0)" x2="0" y2="400" stroke="#ff7f0e" stroke-width="2" stroke-dasharray="5,5" opacity="0.2"/><line transform="translate(65,0)" x2="0" y2="400" stroke="#ff7f0e" stroke-width="2" stroke-dasharray="5,5" opacity="0.2"/><line transform="translate(65,0)" x2="0" y2="400" stroke="#ff7f0e" stroke-width="2" stroke-dasharray="5,5" opacity="0.2"/></g><g class="mark-rule role-mark" role="graphics-symbol" aria-roledescription="rule mark container"><line transform="translate(110,0)" x2="0" y2="400" stroke="#2ca02c" stroke-width="2" stroke-dasharray="5,5" opacity="0.15"/><line transform="translate(110,0)" x2="0" y2="400" stroke="#2ca02c" stroke-width="2" stroke-dasharray="5,5" opacity="0.15"/><line transform="translate(110,0)" x2="0" y2="400" stroke="#2ca02c" stroke-width="2" stroke-dasharray="5,5" opacity="0.15"/><line transform="translate(110,0)" x2="0" y2="400" stroke="#2ca02c" stroke-width="2" stroke-dasharray="5,5" opacity="0.15"/></g><g class="mark-rule role-mark" role="graphics-symbol" aria-roledescription="rule mark container"><line transform="translate(38,180)" x2="576" y2="0" stroke="#1f77b4" stroke-width="12" stroke-dasharray="5,0" opacity="0.2"/><line transform="translate(38,180)" x2="576" y2="0" stroke="#1f77b4" stroke-width="12" stroke-dasharray="5,0" opacity="0.2"/><line transform="translate(38,180)" x2="576" y2="0" stroke="#1f77b4" stroke-width="12" stroke-dasharray="5,0" opacity="0.2"/><line transform="translate(38,180)" x2="576" y2="0" stroke="#1f77b4" stroke-width="12" stroke-dasharray="5,0" opacity="0.2"/></g><g class="mark-rule role-mark" role="graphics-symbol" aria-roledescription="rule mark container"><line transform="translate(142,0)" x2="0" y2="400" stroke="#9467bd" stroke-width="2" stroke-dasharray="5,5" opacity="0.2"/><line transform="translate(142,0)" x2="0" y2="400" stroke="#9467bd" stroke-width="2" stroke-dasharray="5,5" opacity="0.2"/><line transform="translate(142,0)" x2="0" y2="400" stroke="#9467bd" stroke-width="2" stroke-dasharray="5,5" opacity="0.2"/><line transform="translate(142,0)" x2="0" y2="400" stroke="#9467bd" stroke-width="2" stroke-dasharray="5,5" opacity="0.2"/></g><g class="mark-rule role-mark" role="graphics-symbol" aria-roledescription="rule mark container"><line transform="translate(38,180)" x2="576" y2="0" stroke="#ffffff22" stroke-width="2" stroke-dasharray="5,0" opacity="0.2"/><line transform="translate(38,180)" x2="576" y2="0" stroke="#ffffff22" stroke-width="2" stroke-dasharray="5,0" opacity="0.2"/><line transform="translate(38,180)" x2="576" y2="0" stroke="#ffffff22" stroke-width="2" stroke-dasharray="5,0" opacity="0.2"/><line transform="translate(38,180)" x2="576" y2="0" stroke="#ffffff22" stroke-width="2" stroke-dasharray="5,0" opacity="0.2"/></g><g class="mark-rule role-mark" role="graphics-symbol" aria-roledescription="rule mark container"><line transform="translate(38,140)" x2="0" y2="80" stroke="#ffffff22" stroke-width="2" stroke-dasharray="5,0" opacity="0.2"/><line transform="translate(38,140)" x2="0" y2="80" stroke="#ffffff22" stroke-width="2" stroke-dasharray="5,0" opacity="0.2"/><line transform="translate(38,140)" x2="0" y2="80" stroke="#ffffff22" stroke-width="2" stroke-dasharray="5,0" opacity="0.2"/><line transform="translate(38,140)" x2="0" y2="80" stroke="#ffffff22" stroke-width="2" stroke-dasharray="5,0" opacity="0.2"/></g><g class="mark-rule role-mark" role="graphics-symbol" aria-roledescription="rule mark container"><line transform="translate(614,140)" x2="0" y2="80" stroke="#ffffff22" stroke-width="2" stroke-dasharray="5,0" opacity="0.2"/><line transform="translate(614,140)" x2="0" y2="80" stroke="#ffffff22" stroke-width="2" stroke-dasharray="5,0" opacity="0.2"/><line transform="translate(614,140)" x2="0" y2="80" stroke="#ffffff22" stroke-width="2" stroke-dasharray="5,0" opacity="0.2"/><line transform="translate(614,140)" x2="0" y2="80" stroke="#ffffff22" stroke-width="2" stroke-dasharray="5,0" opacity="0.2"/></g><g class="mark-rect role-mark" role="graphics-symbol" aria-roledescription="rect mark container"><path d="M78,140h265v80h-265Z" fill="#ffffff22" opacity="0.1"/><path d="M78,140h265v80h-265Z" fill="#ffffff22" opacity="0.1"/><path d="M78,140h265v80h-265Z" fill="#ffffff22" opacity="0.1"/><path d="M78,140h265v80h-265Z" fill="#ffffff22" opacity="0.1"/><path d="M78,140h265v80h-265Z" fill="#ffffff22" opacity="0.1"/><path d="M78,140h265v80h-265Z" fill="#ffffff22" opacity="0.1"/><path d="M78,140h265v80h-265Z" fill="#ffffff22" opacity="0.1"/><path d="M78,140h265v80h-265Z" fill="#ffffff22" opacity="0.1"/><path d="M78,140h265v80h-265Z" fill="#ffffff22" opacity="0.1"/><path d="M78,140h265v80h-265Z" fill="#ffffff22" opacity="0.1"/><path d="M78,140h265v80h-265Z" fill="#ffffff22" opacity="0.1"/></g><g class="mark-group role-legend" role="graphics-symbol" aria-roledescription="legend" aria-label="Symbol legend titled 'Maß' for fill color with 4 values: Modus, Median, Mittelwert, Spannweite"><g transform="translate(668,0)"><path class="background" aria-hidden="true" d="M0,0h69v77h-69Z" pointer-events="none"/><g><g class="mark-group role-legend-entry"><g transform="translate(0,16)"><path class="background" aria-hidden="true" d="M0,0h0v0h0Z" pointer-events="none"/><g><g class="mark-group role-scope" role="graphics-object" aria-roledescription="group mark container"><g transform="translate(0,0)"><path class="background" aria-hidden="true" d="M0,0h68.2607421875v12.5h-68.2607421875Z" pointer-events="none" opacity="1"/><g><g class="mark-symbol role-legend-symbol" pointer-events="none"><path transform="translate(6,6)" d="M-5,-5h10v10h-10Z" fill="#ff7f0e" stroke-width="1.5" opacity="1"/></g><g class="mark-text role-legend-label" pointer-events="none"><text text-anchor="start" transform="translate(16,9)" font-family="sans-serif" font-size="10px" fill="#fff" opacity="1">Modus</text></g></g><path class="foreground" aria-hidden="true" d="" pointer-events="none" display="none"/></g><g transform="translate(0,16)"><path class="background" aria-hidden="true" d="M0,0h68.2607421875v12.5h-68.2607421875Z" pointer-events="none" opacity="1"/><g><g class="mark-symbol role-legend-symbol" pointer-events="none"><path transform="translate(6,6)" d="M-5,-5h10v10h-10Z" fill="#2ca02c" stroke-width="1.5" opacity="1"/></g><g class="mark-text role-legend-label" pointer-events="none"><text text-anchor="start" transform="translate(16,9)" font-family="sans-serif" font-size="10px" fill="#fff" opacity="1">Median</text></g></g><path class="foreground" aria-hidden="true" d="" pointer-events="none" display="none"/></g><g transform="translate(0,32)"><path class="background" aria-hidden="true" d="M0,0h68.2607421875v12.5h-68.2607421875Z" pointer-events="none" opacity="1"/><g><g class="mark-symbol role-legend-symbol" pointer-events="none"><path transform="translate(6,6)" d="M-5,-5h10v10h-10Z" fill="#9467bd" stroke-width="1.5" opacity="1"/></g><g class="mark-text role-legend-label" pointer-events="none"><text text-anchor="start" transform="translate(16,9)" font-family="sans-serif" font-size="10px" fill="#fff" opacity="1">Mittelwert</text></g></g><path class="foreground" aria-hidden="true" d="" pointer-events="none" display="none"/></g><g transform="translate(0,48)"><path class="background" aria-hidden="true" d="M0,0h68.2607421875v12.5h-68.2607421875Z" pointer-events="none" opacity="1"/><g><g class="mark-symbol role-legend-symbol" pointer-events="none"><path transform="translate(6,6)" d="M-5,-5h10v10h-10Z" fill="#1f77b4" stroke-width="1.5" opacity="1"/></g><g class="mark-text role-legend-label" pointer-events="none"><text text-anchor="start" transform="translate(16,9)" font-family="sans-serif" font-size="10px" fill="#fff" opacity="1">Spannweite</text></g></g><path class="foreground" aria-hidden="true" d="" pointer-events="none" display="none"/></g></g></g><path class="foreground" aria-hidden="true" d="" pointer-events="none" display="none"/></g></g><g class="mark-text role-legend-title" pointer-events="none"><text text-anchor="start" transform="translate(0,9)" font-family="sans-serif" font-size="11px" font-weight="bold" fill="#fff" opacity="1">Maß</text></g></g><path class="foreground" aria-hidden="true" d="" pointer-events="none" display="none"/></g></g><g class="mark-group role-title"><g transform="translate(344.5,-30)"><path class="background" aria-hidden="true" d="M0,0h0v0h0Z" pointer-events="none"/><g><g class="mark-text role-title-text" role="graphics-symbol" aria-roledescription="title" aria-label="Title text 'Verteilung der Gehälter'" pointer-events="none"><text text-anchor="middle" transform="translate(0,16)" font-family="DejaVu Sans Mono" font-size="20px" font-weight="bold" fill="#fff" opacity="1">Verteilung der Gehälter</text></g></g><path class="foreground" aria-hidden="true" d="" pointer-events="none" display="none"/></g></g></g><path class="foreground" aria-hidden="true" d="" display="none"/></g></g></g></svg>